<svg width="104" height="116" viewBox="0 0 104 116" fill="none" xmlns="http://www.w3.org/2000/svg">
<g clip-path="url(#clip0_3296_3796)">
<path d="M70.5067 27.5335L52.5742 37.7481C52.2514 37.9379 51.8527 37.9379 51.5204 37.7481L33.5879 27.5335C32.8854 27.1347 32.8854 26.119 33.5879 25.7108L51.5204 15.4962C51.8432 15.3063 52.2419 15.3063 52.5742 15.4962L70.5067 25.7108C71.2092 26.1095 71.2092 27.1252 70.5067 27.5335Z" fill="#3DCFB6"/>
<path d="M67.4027 30.97V39.3904C67.4027 39.7701 67.2033 40.1119 66.8711 40.3017L52.5744 48.4468C52.2516 48.6367 51.8529 48.6367 51.5207 48.4468L37.224 40.3017C36.8917 40.1119 36.6924 39.7701 36.6924 39.3904V30.97L44.6191 35.4792L51.5207 39.4189C51.8434 39.6087 52.2421 39.6087 52.5744 39.4189L59.4759 35.4792L67.4027 30.97Z" fill="#3DCFB6"/>
<path d="M75.7566 17.072L76.2502 16.7302C76.8483 16.3125 76.7723 15.4107 76.1173 15.0974L72.1871 13.2273C71.5226 12.914 70.7727 13.4361 70.8296 14.1671L71.2094 18.5055C71.2758 19.2269 72.1017 19.6161 72.6998 19.1985L73.4023 18.7143C79.6488 28.777 77.9685 42.1813 69.2348 50.3454C60.6435 58.3766 47.4006 59.3544 37.7461 52.6712C37.1005 52.2251 36.2082 52.3864 35.762 53.032C35.3158 53.6775 35.4772 54.5699 36.1227 55.016C40.8978 58.3197 46.4513 59.943 51.9953 59.943C58.9347 59.943 65.8552 57.3988 71.1809 52.4244C80.9303 43.3015 82.81 28.2929 75.7566 17.072Z" fill="#3DCFB6"/>
<path d="M67.9723 8.92698C57.2261 1.48436 42.4833 2.57607 32.9142 11.5186C22.9179 20.8693 21.1237 35.8115 28.5758 47.2223L27.8828 47.6969C27.2847 48.1146 27.3607 49.0165 28.0157 49.3298L31.9459 51.1999C32.6104 51.5132 33.3604 50.9911 33.3034 50.2601L32.9237 45.9217C32.8572 45.2002 32.0313 44.811 31.4332 45.2287L30.9206 45.5895C24.2944 35.3464 25.8988 21.9705 34.8603 13.5976C43.4516 5.56641 56.6945 4.57912 66.349 11.2718C66.9945 11.718 67.8869 11.5566 68.3331 10.911C68.7792 10.2655 68.6179 9.37315 67.9723 8.92698Z" fill="#3DCFB6"/>
</g>
<path d="M25.2641 89.207C24.2861 89.207 23.4341 88.97 22.7081 88.496C21.9881 88.022 21.4301 87.311 21.0341 86.363C20.6381 85.415 20.4401 84.227 20.4401 82.799C20.4401 81.731 20.5811 80.798 20.8631 80C21.1511 79.202 21.5381 78.536 22.0241 78.002C22.5161 77.468 23.0711 77.069 23.6891 76.805C24.3131 76.541 24.9581 76.409 25.6241 76.409C26.4341 76.409 27.1061 76.526 27.6401 76.76C28.1741 76.988 28.6841 77.324 29.1701 77.768L28.2251 78.749C27.8471 78.395 27.4481 78.134 27.0281 77.966C26.6141 77.798 26.1491 77.714 25.6331 77.714C25.1831 77.714 24.7481 77.801 24.3281 77.975C23.9081 78.149 23.5301 78.434 23.1941 78.83C22.8641 79.22 22.6001 79.739 22.4021 80.387C22.2101 81.035 22.1141 81.839 22.1141 82.799C22.1141 83.993 22.2371 84.965 22.4831 85.715C22.7351 86.465 23.1041 87.017 23.5901 87.371C24.0821 87.719 24.6881 87.893 25.4081 87.893C25.8401 87.893 26.2481 87.842 26.6321 87.74C27.0221 87.638 27.4001 87.491 27.7661 87.299V83.519H25.3271L25.1381 82.223H29.3141V88.127C28.7561 88.427 28.1621 88.682 27.5321 88.892C26.9021 89.102 26.1461 89.207 25.2641 89.207ZM32.3131 89V87.839H33.7891V80.684H32.3131V79.523H34.9411L35.2201 81.764C35.5861 80.984 36.0301 80.381 36.5521 79.955C37.0741 79.529 37.7641 79.316 38.6221 79.316C38.8861 79.316 39.1201 79.337 39.3241 79.379C39.5341 79.415 39.7471 79.463 39.9631 79.523L39.5221 80.873C39.3241 80.819 39.1441 80.78 38.9821 80.756C38.8201 80.726 38.6341 80.711 38.4241 80.711C37.6981 80.711 37.0741 80.969 36.5521 81.485C36.0301 82.001 35.6131 82.781 35.3011 83.825V87.839H37.2271V89H32.3131ZM38.5051 82.727V80.666L38.6581 79.523H39.9631L39.7471 82.727H38.5051ZM46.625 79.325C47.519 79.325 48.266 79.529 48.866 79.937C49.472 80.339 49.925 80.909 50.225 81.647C50.531 82.385 50.684 83.255 50.684 84.257C50.684 85.223 50.528 86.078 50.216 86.822C49.904 87.566 49.445 88.151 48.839 88.577C48.239 88.997 47.495 89.207 46.607 89.207C45.719 89.207 44.972 89.003 44.366 88.595C43.76 88.187 43.301 87.614 42.989 86.876C42.683 86.132 42.53 85.265 42.53 84.275C42.53 83.297 42.686 82.436 42.998 81.692C43.31 80.948 43.769 80.369 44.375 79.955C44.987 79.535 45.737 79.325 46.625 79.325ZM46.625 80.558C45.809 80.558 45.191 80.861 44.771 81.467C44.357 82.067 44.15 83.003 44.15 84.275C44.15 85.523 44.354 86.45 44.762 87.056C45.176 87.662 45.791 87.965 46.607 87.965C47.423 87.965 48.035 87.662 48.443 87.056C48.857 86.45 49.064 85.517 49.064 84.257C49.064 82.997 48.86 82.067 48.452 81.467C48.044 80.861 47.435 80.558 46.625 80.558ZM60.829 89H58.687L57.463 82.043L56.131 89H54.043L52.315 79.523H53.863L55.069 88.064L56.581 80.729H58.372L59.803 88.064L61.009 79.523H62.485L60.829 89ZM72.126 88.523C71.802 88.739 71.409 88.907 70.947 89.027C70.485 89.147 70.032 89.207 69.588 89.207C68.568 89.207 67.782 88.94 67.23 88.406C66.678 87.872 66.402 87.185 66.402 86.345V80.693H64.224V79.523H66.402V77.372L67.914 77.192V79.523H71.19L71.01 80.693H67.914V86.327C67.914 86.855 68.052 87.257 68.328 87.533C68.61 87.809 69.075 87.947 69.723 87.947C70.077 87.947 70.404 87.905 70.704 87.821C71.004 87.737 71.283 87.629 71.541 87.497L72.126 88.523ZM76.9069 75.563V80.819C77.2789 80.321 77.7349 79.949 78.2749 79.703C78.8209 79.451 79.3729 79.325 79.9309 79.325C80.8549 79.325 81.5299 79.571 81.9559 80.063C82.3819 80.555 82.5949 81.239 82.5949 82.115V89H81.0829V82.151C81.0829 81.581 80.9509 81.167 80.6869 80.909C80.4229 80.645 80.0089 80.513 79.4449 80.513C79.0849 80.513 78.7429 80.594 78.4189 80.756C78.0949 80.918 77.8039 81.119 77.5459 81.359C77.2879 81.599 77.0749 81.845 76.9069 82.097V89H75.3949V75.725L76.9069 75.563ZM22.2796 101.325C22.5856 101.325 22.8766 101.391 23.1526 101.523C23.4346 101.655 23.6656 101.91 23.8456 102.288C24.0256 102.666 24.1156 103.218 24.1156 103.944V111H22.7116V104.187C22.7116 103.593 22.6756 103.164 22.6036 102.9C22.5316 102.636 22.3246 102.504 21.9826 102.504C21.7006 102.504 21.4186 102.594 21.1366 102.774C20.8606 102.948 20.5906 103.236 20.3266 103.638V111H18.9136V104.187C18.9136 103.593 18.8776 103.164 18.8056 102.9C18.7336 102.636 18.5266 102.504 18.1846 102.504C17.8906 102.504 17.6056 102.594 17.3296 102.774C17.0596 102.948 16.7926 103.236 16.5286 103.638V111H15.1336V101.523H16.3216L16.4116 102.621C16.6696 102.255 16.9576 101.949 17.2756 101.703C17.5996 101.451 17.9986 101.325 18.4726 101.325C18.8326 101.325 19.1716 101.412 19.4896 101.586C19.8076 101.754 20.0416 102.084 20.1916 102.576C20.4496 102.204 20.7406 101.904 21.0646 101.676C21.3886 101.442 21.7936 101.325 22.2796 101.325ZM31.6236 101.523V109.803H34.2966V111H27.1866V109.803H30.1116V102.72H27.2766V101.523H31.6236ZM30.4176 97.086C30.7536 97.086 31.0206 97.188 31.2186 97.392C31.4226 97.596 31.5246 97.845 31.5246 98.139C31.5246 98.445 31.4226 98.703 31.2186 98.913C31.0206 99.117 30.7536 99.219 30.4176 99.219C30.0996 99.219 29.8386 99.117 29.6346 98.913C29.4306 98.703 29.3286 98.445 29.3286 98.139C29.3286 97.845 29.4306 97.596 29.6346 97.392C29.8386 97.188 30.0996 97.086 30.4176 97.086ZM37.6195 111V101.523H38.9065L39.0235 102.837C39.4075 102.351 39.8875 101.979 40.4635 101.721C41.0455 101.457 41.6095 101.325 42.1555 101.325C43.0855 101.325 43.7605 101.571 44.1805 102.063C44.6065 102.555 44.8195 103.239 44.8195 104.115V111H43.3075V105.231C43.3075 104.583 43.2715 104.061 43.1995 103.665C43.1275 103.263 42.9775 102.972 42.7495 102.792C42.5215 102.606 42.1675 102.513 41.6875 102.513C41.3155 102.513 40.9645 102.594 40.6345 102.756C40.3105 102.918 40.0195 103.122 39.7615 103.368C39.5095 103.608 39.2995 103.851 39.1315 104.097V111H37.6195ZM54.0825 97.518L55.5945 97.707V111H54.2715L54.1275 109.749C53.7735 110.253 53.3655 110.622 52.9035 110.856C52.4475 111.09 51.9585 111.207 51.4365 111.207C50.6145 111.207 49.9365 111 49.4025 110.586C48.8685 110.172 48.4725 109.596 48.2145 108.858C47.9565 108.114 47.8275 107.253 47.8275 106.275C47.8275 105.327 47.9745 104.481 48.2685 103.737C48.5625 102.987 48.9855 102.399 49.5375 101.973C50.0955 101.541 50.7645 101.325 51.5445 101.325C52.0905 101.325 52.5705 101.421 52.9845 101.613C53.3985 101.799 53.7645 102.075 54.0825 102.441V97.518ZM51.9405 102.54C51.1485 102.54 50.5395 102.849 50.1135 103.467C49.6875 104.085 49.4745 105.021 49.4745 106.275C49.4745 107.091 49.5615 107.775 49.7355 108.327C49.9095 108.879 50.1645 109.293 50.5005 109.569C50.8425 109.845 51.2595 109.983 51.7515 109.983C52.2915 109.983 52.7505 109.83 53.1285 109.524C53.5125 109.218 53.8305 108.873 54.0825 108.489V103.755C53.8245 103.371 53.5125 103.074 53.1465 102.864C52.7805 102.648 52.3785 102.54 51.9405 102.54ZM62.4275 109.956C63.1535 109.956 63.7265 109.821 64.1465 109.551C64.5725 109.275 64.7855 108.909 64.7855 108.453C64.7855 108.165 64.7315 107.916 64.6235 107.706C64.5215 107.496 64.3085 107.307 63.9845 107.139C63.6605 106.971 63.1625 106.803 62.4905 106.635C61.8365 106.473 61.2665 106.287 60.7805 106.077C60.3005 105.861 59.9255 105.582 59.6555 105.24C59.3915 104.898 59.2595 104.454 59.2595 103.908C59.2595 103.374 59.4095 102.915 59.7095 102.531C60.0155 102.141 60.4385 101.844 60.9785 101.64C61.5185 101.43 62.1455 101.325 62.8595 101.325C63.6215 101.325 64.2845 101.427 64.8485 101.631C65.4185 101.829 65.9015 102.075 66.2975 102.369L65.6315 103.395C65.2715 103.149 64.8755 102.948 64.4435 102.792C64.0115 102.63 63.4895 102.549 62.8775 102.549C62.1335 102.549 61.6055 102.666 61.2935 102.9C60.9815 103.128 60.8255 103.425 60.8255 103.791C60.8255 104.067 60.9005 104.298 61.0505 104.484C61.2065 104.664 61.4675 104.829 61.8335 104.979C62.1995 105.123 62.7035 105.282 63.3455 105.456C63.9635 105.618 64.5005 105.813 64.9565 106.041C65.4185 106.269 65.7785 106.569 66.0365 106.941C66.2945 107.313 66.4235 107.793 66.4235 108.381C66.4235 109.053 66.2315 109.599 65.8475 110.019C65.4635 110.433 64.9655 110.736 64.3535 110.928C63.7475 111.114 63.1055 111.207 62.4275 111.207C61.5695 111.207 60.8375 111.084 60.2315 110.838C59.6315 110.586 59.1275 110.283 58.7195 109.929L59.5835 108.93C59.9555 109.236 60.3815 109.485 60.8615 109.677C61.3475 109.863 61.8695 109.956 62.4275 109.956ZM71.1865 106.797C71.2165 107.529 71.3575 108.129 71.6095 108.597C71.8615 109.059 72.1945 109.401 72.6085 109.623C73.0225 109.839 73.4725 109.947 73.9585 109.947C74.4445 109.947 74.8825 109.875 75.2725 109.731C75.6685 109.587 76.0735 109.374 76.4875 109.092L77.1985 110.091C76.7545 110.439 76.2475 110.712 75.6775 110.91C75.1135 111.108 74.5345 111.207 73.9405 111.207C73.0225 111.207 72.2395 111 71.5915 110.586C70.9435 110.172 70.4485 109.596 70.1065 108.858C69.7705 108.114 69.6025 107.253 69.6025 106.275C69.6025 105.315 69.7735 104.463 70.1155 103.719C70.4575 102.975 70.9375 102.39 71.5555 101.964C72.1735 101.538 72.9025 101.325 73.7425 101.325C74.5405 101.325 75.2275 101.514 75.8035 101.892C76.3795 102.264 76.8205 102.798 77.1265 103.494C77.4385 104.184 77.5945 105.009 77.5945 105.969C77.5945 106.131 77.5915 106.284 77.5855 106.428C77.5795 106.566 77.5705 106.689 77.5585 106.797H71.1865ZM73.7605 102.567C73.0585 102.567 72.4705 102.816 71.9965 103.314C71.5285 103.812 71.2615 104.583 71.1955 105.627H76.1365C76.1185 104.613 75.8965 103.851 75.4705 103.341C75.0445 102.825 74.4745 102.567 73.7605 102.567ZM88.3154 110.523C87.9914 110.739 87.5984 110.907 87.1364 111.027C86.6744 111.147 86.2214 111.207 85.7774 111.207C84.7574 111.207 83.9714 110.94 83.4194 110.406C82.8674 109.872 82.5914 109.185 82.5914 108.345V102.693H80.4134V101.523H82.5914V99.372L84.1034 99.192V101.523H87.3794L87.1994 102.693H84.1034V108.327C84.1034 108.855 84.2414 109.257 84.5174 109.533C84.7994 109.809 85.2644 109.947 85.9124 109.947C86.2664 109.947 86.5934 109.905 86.8934 109.821C87.1934 109.737 87.4724 109.629 87.7304 109.497L88.3154 110.523Z" fill="#3DCFB6"/>
<defs>
<clipPath id="clip0_3296_3796">
<rect width="56" height="55.943" fill="white" transform="translate(24 4)"/>
</clipPath>
</defs>
</svg>
