<svg width="22" height="26" viewBox="0 0 22 26" fill="none" xmlns="http://www.w3.org/2000/svg">
<path d="M10.661 25.9223C10.3981 25.9223 10.137 25.8779 9.87767 25.789C9.61856 25.7001 9.389 25.5593 9.189 25.3667C8.08522 24.3593 6.98522 23.2779 5.889 22.1223C4.79256 20.9668 3.80922 19.7686 2.939 18.5277C2.06856 17.287 1.36111 16.0241 0.816667 14.739C0.272222 13.4537 0 12.1851 0 10.9333C0 7.6 1.07222 4.94444 3.21667 2.96667C5.36111 0.988889 7.84445 0 10.6667 0C13.4889 0 15.9722 0.988889 18.1167 2.96667C20.2611 4.94444 21.3333 7.6 21.3333 10.9333C21.3333 12.1851 21.0611 13.4537 20.5167 14.739C19.9722 16.0241 19.2648 17.287 18.3943 18.5277C17.5241 19.7686 16.5408 20.9668 15.4443 22.1223C14.3481 23.2779 13.2481 24.3593 12.1443 25.3667C11.9443 25.5593 11.7129 25.7001 11.45 25.789C11.1871 25.8779 10.9241 25.9223 10.661 25.9223ZM10.6687 13.111C11.3413 13.111 11.9166 12.8714 12.3943 12.3923C12.8721 11.9134 13.111 11.3376 13.111 10.6647C13.111 9.992 12.8714 9.41678 12.3923 8.939C11.9134 8.46122 11.3376 8.22233 10.6647 8.22233C9.992 8.22233 9.41678 8.46189 8.939 8.941C8.46122 9.41989 8.22233 9.99578 8.22233 10.6687C8.22233 11.3413 8.46189 11.9166 8.941 12.3943C9.41989 12.8721 9.99578 13.111 10.6687 13.111Z" fill="#3DCFB6"/>
</svg>
