<svg width="29" height="28" viewBox="0 0 29 28" fill="none" xmlns="http://www.w3.org/2000/svg">
<path d="M12.9 15.059L10.6333 12.7367C10.4187 12.5072 10.1539 12.3924 9.839 12.3924C9.52411 12.3924 9.24822 12.5035 9.01133 12.7257C8.78156 12.9553 8.66667 13.2293 8.66667 13.5477C8.66667 13.8664 8.78156 14.1405 9.01133 14.37L12.1223 17.459C12.3446 17.6813 12.6038 17.7924 12.9 17.7924C13.1964 17.7924 13.4558 17.6813 13.678 17.459L19.6333 11.5257C19.8556 11.3035 19.9649 11.0368 19.9613 10.7257C19.9576 10.4146 19.8409 10.1479 19.6113 9.92571C19.3891 9.71816 19.1242 9.61627 18.8167 9.62005C18.5093 9.62383 18.252 9.72938 18.0447 9.93671L12.9 15.059ZM9.32233 26.8367L7.3 23.3924L3.32233 22.57C3.04833 22.5183 2.82244 22.3719 2.64467 22.131C2.46689 21.8904 2.40022 21.633 2.44467 21.359L2.878 17.4367L0.289 14.4367C0.0963333 14.2367 0 13.9923 0 13.7034C0 13.4145 0.0963333 13.17 0.289 12.97L2.878 9.99238L2.44467 6.07005C2.40022 5.79605 2.46689 5.5386 2.64467 5.29771C2.82244 5.05705 3.04833 4.91082 3.32233 4.85905L7.3 4.03671L9.32233 0.570047C9.47055 0.325603 9.678 0.157048 9.94467 0.0643808C10.2113 -0.0280636 10.478 -0.0150642 10.7447 0.10338L14.3223 1.72571L17.9 0.10338C18.1667 -0.0150642 18.4333 -0.0317308 18.7 0.0533803C18.9667 0.138491 19.1741 0.30327 19.3223 0.547714L21.3667 4.03671L25.3223 4.85905C25.5963 4.91082 25.8222 5.05705 26 5.29771C26.1778 5.5386 26.2444 5.79605 26.2 6.07005L25.7667 9.99238L28.3557 12.97C28.5483 13.17 28.6447 13.4145 28.6447 13.7034C28.6447 13.9923 28.5483 14.2367 28.3557 14.4367L25.7667 17.4367L26.2 21.359C26.2444 21.633 26.1778 21.8904 26 22.131C25.8222 22.3719 25.5963 22.5183 25.3223 22.57L21.3667 23.3924L19.3223 26.859C19.1741 27.1035 18.9667 27.2683 18.7 27.3534C18.4333 27.4385 18.1667 27.4218 17.9 27.3034L14.3223 25.681L10.7447 27.3034C10.478 27.4218 10.2113 27.4348 9.94467 27.3424C9.678 27.2497 9.47055 27.0812 9.32233 26.8367Z" fill="#3DCFB6"/>
</svg>
