<svg width="30" height="48" viewBox="0 0 30 48" fill="none" xmlns="http://www.w3.org/2000/svg">
<rect x="0.5" y="0.5" width="29" height="47" rx="14.5" stroke="#3DCFB6"/>
<path d="M15.5 26C15.5 25.7239 15.2761 25.5 15 25.5C14.7239 25.5 14.5 25.7239 14.5 26H15.5ZM14.6464 38.3536C14.8417 38.5488 15.1583 38.5488 15.3536 38.3536L18.5355 35.1716C18.7308 34.9763 18.7308 34.6597 18.5355 34.4645C18.3403 34.2692 18.0237 34.2692 17.8284 34.4645L15 37.2929L12.1716 34.4645C11.9763 34.2692 11.6597 34.2692 11.4645 34.4645C11.2692 34.6597 11.2692 34.9763 11.4645 35.1716L14.6464 38.3536ZM14.5 26V38H15.5V26H14.5Z" fill="white"/>
</svg>
