<svg width="60" height="60" viewBox="0 0 60 60" fill="none" xmlns="http://www.w3.org/2000/svg">
<path d="M29.634 40.8091C45.31 40.8091 58.0179 35.9569 58.0179 29.9715C58.0179 23.9862 45.31 19.134 29.634 19.134C13.9579 19.134 1.25 23.9862 1.25 29.9715C1.25 35.9569 13.9579 40.8091 29.634 40.8091Z" stroke="white" stroke-width="2.5"/>
<path d="M20.248 35.3903C28.086 48.9662 38.6421 57.5455 43.8256 54.5528C49.0091 51.5601 46.8572 38.1286 39.0191 24.5528C31.1811 10.977 20.6251 2.39762 15.4416 5.39032C10.2581 8.38301 12.41 21.8145 20.248 35.3903Z" stroke="white" stroke-width="2.5"/>
<path d="M20.2483 24.5527C12.4103 38.1285 10.2584 51.56 15.4419 54.5527C20.6254 57.5454 31.1814 48.966 39.0194 35.3902C46.8575 21.8144 49.0094 8.3829 43.8259 5.3902C38.6424 2.3975 28.0863 10.9768 20.2483 24.5527Z" stroke="white" stroke-width="2.5"/>
<path d="M29.6343 25.1815C32.2794 25.1817 34.4233 27.3264 34.4233 29.9716C34.4232 32.6166 32.2793 34.7605 29.6343 34.7606C26.9891 34.7606 24.8444 32.6167 24.8442 29.9716C24.8442 27.3263 26.989 25.1815 29.6343 25.1815Z" fill="white" stroke="white"/>
</svg>
