<svg width="196" height="135" viewBox="0 0 196 135" fill="none" xmlns="http://www.w3.org/2000/svg">
<g filter="url(#filter0_d_3296_3797)">
<rect x="4" width="188" height="112" rx="16" fill="white"/>
<path d="M53.8226 124.845L44 112H70L60.1774 124.845C58.5764 126.938 55.4236 126.938 53.8226 124.845Z" fill="white"/>
</g>
<path d="M44.2566 23V12.952H45.5046V23H44.2566ZM57.9779 23V18.504C57.9779 17.7733 57.8019 17.2187 57.4499 16.84C57.1032 16.456 56.6285 16.264 56.0259 16.264C55.5672 16.264 55.1699 16.3893 54.8339 16.64C54.4979 16.8907 54.2392 17.2507 54.0579 17.72C53.8765 18.184 53.7859 18.7387 53.7859 19.384H53.3059C53.3059 18.4933 53.4232 17.7333 53.6579 17.104C53.8925 16.4747 54.2339 15.9947 54.6819 15.664C55.1352 15.328 55.6845 15.16 56.3299 15.16C56.9325 15.16 57.4472 15.296 57.8739 15.568C58.3059 15.8347 58.6365 16.2187 58.8659 16.72C59.0952 17.2213 59.2099 17.816 59.2099 18.504V23H57.9779ZM52.5379 23V12.088H53.7859V23H52.5379ZM66.9301 23L66.7701 21.32V18.04C66.7701 17.352 66.6235 16.8587 66.3301 16.56C66.0368 16.256 65.5968 16.104 65.0101 16.104C64.6795 16.104 64.3781 16.152 64.1061 16.248C63.8395 16.344 63.6261 16.4933 63.4661 16.696C63.3115 16.8933 63.2341 17.1493 63.2341 17.464H61.8421C61.8421 16.9093 61.9781 16.464 62.2501 16.128C62.5221 15.7867 62.8955 15.5413 63.3701 15.392C63.8501 15.2373 64.3968 15.16 65.0101 15.16C65.5968 15.16 66.1168 15.2587 66.5701 15.456C67.0235 15.6533 67.3781 15.968 67.6341 16.4C67.8901 16.8267 68.0181 17.384 68.0181 18.072V23H66.9301ZM64.3221 23.192C63.6928 23.192 63.1728 23.08 62.7621 22.856C62.3515 22.632 62.0448 22.3413 61.8421 21.984C61.6395 21.6267 61.5381 21.2507 61.5381 20.856C61.5381 20.3387 61.6661 19.9173 61.9221 19.592C62.1835 19.2667 62.5381 19.0293 62.9861 18.88C63.4341 18.7253 63.9381 18.648 64.4981 18.648C64.8981 18.648 65.2981 18.688 65.6981 18.768C66.1035 18.848 66.4981 18.9573 66.8821 19.096V19.88C66.5621 19.752 66.1995 19.6507 65.7941 19.576C65.3941 19.5013 65.0261 19.464 64.6901 19.464C64.1781 19.464 63.7461 19.5707 63.3941 19.784C63.0421 19.992 62.8661 20.3493 62.8661 20.856C62.8661 21.2293 62.9995 21.5493 63.2661 21.816C63.5381 22.0827 63.9701 22.216 64.5621 22.216C64.9781 22.216 65.3515 22.12 65.6821 21.928C66.0181 21.7307 66.2821 21.4853 66.4741 21.192C66.6715 20.8987 66.7701 20.6053 66.7701 20.312H67.0741C67.0741 20.824 66.9621 21.2987 66.7381 21.736C66.5195 22.1733 66.2048 22.5253 65.7941 22.792C65.3835 23.0587 64.8928 23.192 64.3221 23.192ZM69.6786 15.352H71.1026L73.5026 21.928H73.3266L75.7266 15.352H77.1506L74.0946 23H72.7346L69.6786 15.352ZM81.7095 23.192C81.0482 23.192 80.4562 23.024 79.9335 22.688C79.4162 22.3467 79.0055 21.8747 78.7015 21.272C78.4028 20.6693 78.2535 19.976 78.2535 19.192C78.2535 18.3547 78.4028 17.6347 78.7015 17.032C79.0002 16.4293 79.4082 15.968 79.9255 15.648C80.4482 15.3227 81.0428 15.16 81.7095 15.16C82.2908 15.16 82.7868 15.2773 83.1975 15.512C83.6082 15.7467 83.9388 16.064 84.1895 16.464C84.4402 16.864 84.6135 17.3173 84.7095 17.824C84.8108 18.3253 84.8402 18.8453 84.7975 19.384H79.2615V18.616H83.9735L83.6055 18.856C83.6215 18.5413 83.6028 18.2267 83.5495 17.912C83.5015 17.5973 83.4082 17.3093 83.2695 17.048C83.1308 16.7813 82.9362 16.568 82.6855 16.408C82.4348 16.248 82.1148 16.168 81.7255 16.168C81.2348 16.168 80.8242 16.2933 80.4935 16.544C80.1628 16.7947 79.9148 17.1253 79.7495 17.536C79.5842 17.9413 79.5015 18.3813 79.5015 18.856V19.368C79.5015 19.9013 79.5815 20.3787 79.7415 20.8C79.9068 21.2213 80.1522 21.5547 80.4775 21.8C80.8028 22.0453 81.2135 22.168 81.7095 22.168C82.2055 22.168 82.6135 22.048 82.9335 21.808C83.2535 21.568 83.4482 21.2133 83.5175 20.744H84.8135C84.7335 21.2507 84.5522 21.688 84.2695 22.056C83.9868 22.4187 83.6268 22.6987 83.1895 22.896C82.7522 23.0933 82.2588 23.192 81.7095 23.192ZM95.8051 23L95.6451 21.32V18.04C95.6451 17.352 95.4985 16.8587 95.2051 16.56C94.9118 16.256 94.4718 16.104 93.8851 16.104C93.5545 16.104 93.2531 16.152 92.9811 16.248C92.7145 16.344 92.5011 16.4933 92.3411 16.696C92.1865 16.8933 92.1091 17.1493 92.1091 17.464H90.7171C90.7171 16.9093 90.8531 16.464 91.1251 16.128C91.3971 15.7867 91.7705 15.5413 92.2451 15.392C92.7251 15.2373 93.2718 15.16 93.8851 15.16C94.4718 15.16 94.9918 15.2587 95.4451 15.456C95.8985 15.6533 96.2531 15.968 96.5091 16.4C96.7651 16.8267 96.8931 17.384 96.8931 18.072V23H95.8051ZM93.1971 23.192C92.5678 23.192 92.0478 23.08 91.6371 22.856C91.2265 22.632 90.9198 22.3413 90.7171 21.984C90.5145 21.6267 90.4131 21.2507 90.4131 20.856C90.4131 20.3387 90.5411 19.9173 90.7971 19.592C91.0585 19.2667 91.4131 19.0293 91.8611 18.88C92.3091 18.7253 92.8131 18.648 93.3731 18.648C93.7731 18.648 94.1731 18.688 94.5731 18.768C94.9785 18.848 95.3731 18.9573 95.7571 19.096V19.88C95.4371 19.752 95.0745 19.6507 94.6691 19.576C94.2691 19.5013 93.9011 19.464 93.5651 19.464C93.0531 19.464 92.6211 19.5707 92.2691 19.784C91.9171 19.992 91.7411 20.3493 91.7411 20.856C91.7411 21.2293 91.8745 21.5493 92.1411 21.816C92.4131 22.0827 92.8451 22.216 93.4371 22.216C93.8531 22.216 94.2265 22.12 94.5571 21.928C94.8931 21.7307 95.1571 21.4853 95.3491 21.192C95.5465 20.8987 95.6451 20.6053 95.6451 20.312H95.9491C95.9491 20.824 95.8371 21.2987 95.6131 21.736C95.3945 22.1733 95.0798 22.5253 94.6691 22.792C94.2585 23.0587 93.7678 23.192 93.1971 23.192ZM106.431 23.192C105.689 23.192 105.071 23.088 104.575 22.88C104.079 22.6667 103.703 22.376 103.447 22.008C103.191 21.6347 103.055 21.208 103.039 20.728H104.239C104.265 21.2133 104.46 21.5787 104.823 21.824C105.191 22.064 105.689 22.184 106.319 22.184C106.649 22.184 106.953 22.1307 107.231 22.024C107.508 21.9173 107.729 21.7707 107.895 21.584C108.06 21.3973 108.143 21.1867 108.143 20.952C108.143 20.6533 108.033 20.4187 107.815 20.248C107.596 20.0773 107.247 19.928 106.766 19.8L105.279 19.32C104.633 19.1173 104.137 18.84 103.791 18.488C103.449 18.1307 103.279 17.704 103.279 17.208C103.279 16.5893 103.551 16.0933 104.095 15.72C104.639 15.3467 105.353 15.16 106.239 15.16C107.177 15.16 107.905 15.352 108.423 15.736C108.94 16.12 109.209 16.6 109.231 17.176H107.999C107.951 16.84 107.78 16.5867 107.487 16.416C107.193 16.24 106.777 16.152 106.239 16.152C105.721 16.152 105.316 16.2693 105.023 16.504C104.735 16.7333 104.591 16.9893 104.591 17.272C104.591 17.8 105.044 18.1893 105.951 18.44L107.471 18.952C108.127 19.1493 108.628 19.408 108.975 19.728C109.327 20.048 109.503 20.456 109.503 20.952C109.503 21.336 109.377 21.6987 109.127 22.04C108.876 22.3813 108.521 22.6587 108.063 22.872C107.604 23.0853 107.06 23.192 106.431 23.192ZM115.557 23.192C114.997 23.192 114.509 23.064 114.093 22.808C113.682 22.552 113.365 22.1787 113.141 21.688C112.917 21.192 112.805 20.5893 112.805 19.88H113.333C113.333 20.3547 113.431 20.7547 113.629 21.08C113.826 21.4053 114.082 21.6533 114.397 21.824C114.717 21.9893 115.055 22.072 115.413 22.072C115.797 22.072 116.165 21.9627 116.517 21.744C116.869 21.52 117.157 21.192 117.381 20.76C117.605 20.328 117.717 19.7947 117.717 19.16C117.717 18.552 117.613 18.032 117.405 17.6C117.202 17.168 116.927 16.8373 116.581 16.608C116.234 16.3787 115.85 16.264 115.429 16.264C115.066 16.264 114.725 16.352 114.405 16.528C114.085 16.704 113.826 16.9627 113.629 17.304C113.431 17.64 113.333 18.056 113.333 18.552H112.805C112.805 17.8107 112.927 17.1893 113.173 16.688C113.418 16.1813 113.751 15.8 114.173 15.544C114.594 15.288 115.066 15.16 115.589 15.16C116.186 15.16 116.743 15.32 117.261 15.64C117.778 15.96 118.197 16.4187 118.517 17.016C118.837 17.6133 118.997 18.328 118.997 19.16C118.997 20.0027 118.834 20.7253 118.509 21.328C118.189 21.9307 117.767 22.392 117.245 22.712C116.722 23.032 116.159 23.192 115.557 23.192ZM112.085 26.76V15.352H113.125L113.333 17.144V26.76H112.085ZM124.1 23.192C123.439 23.192 122.847 23.024 122.324 22.688C121.807 22.3467 121.396 21.8747 121.092 21.272C120.793 20.6693 120.644 19.976 120.644 19.192C120.644 18.3547 120.793 17.6347 121.092 17.032C121.391 16.4293 121.799 15.968 122.316 15.648C122.839 15.3227 123.433 15.16 124.1 15.16C124.681 15.16 125.177 15.2773 125.588 15.512C125.999 15.7467 126.329 16.064 126.58 16.464C126.831 16.864 127.004 17.3173 127.1 17.824C127.201 18.3253 127.231 18.8453 127.188 19.384H121.652V18.616H126.364L125.996 18.856C126.012 18.5413 125.993 18.2267 125.94 17.912C125.892 17.5973 125.799 17.3093 125.66 17.048C125.521 16.7813 125.327 16.568 125.076 16.408C124.825 16.248 124.505 16.168 124.116 16.168C123.625 16.168 123.215 16.2933 122.884 16.544C122.553 16.7947 122.305 17.1253 122.14 17.536C121.975 17.9413 121.892 18.3813 121.892 18.856V19.368C121.892 19.9013 121.972 20.3787 122.132 20.8C122.297 21.2213 122.543 21.5547 122.868 21.8C123.193 22.0453 123.604 22.168 124.1 22.168C124.596 22.168 125.004 22.048 125.324 21.808C125.644 21.568 125.839 21.2133 125.908 20.744H127.204C127.124 21.2507 126.943 21.688 126.66 22.056C126.377 22.4187 126.017 22.6987 125.58 22.896C125.143 23.0933 124.649 23.192 124.1 23.192ZM132.351 23.192C131.738 23.192 131.164 23.0267 130.631 22.696C130.103 22.3653 129.676 21.8987 129.351 21.296C129.026 20.6933 128.863 19.9813 128.863 19.16C128.863 18.3173 129.026 17.5973 129.351 17C129.676 16.4027 130.103 15.9467 130.631 15.632C131.164 15.3173 131.738 15.16 132.351 15.16C132.783 15.16 133.17 15.2267 133.511 15.36C133.858 15.488 134.159 15.6667 134.415 15.896C134.671 16.1253 134.882 16.3867 135.047 16.68C135.218 16.968 135.343 17.272 135.423 17.592L134.143 17.704C134.01 17.2613 133.786 16.912 133.471 16.656C133.162 16.3947 132.783 16.264 132.335 16.264C131.956 16.264 131.599 16.3733 131.263 16.592C130.932 16.8053 130.663 17.128 130.455 17.56C130.247 17.9867 130.143 18.52 130.143 19.16C130.143 19.752 130.236 20.2667 130.423 20.704C130.615 21.136 130.876 21.472 131.207 21.712C131.538 21.952 131.914 22.072 132.335 22.072C132.927 22.072 133.375 21.928 133.679 21.64C133.988 21.3467 134.143 20.9413 134.143 20.424H135.423C135.423 20.9573 135.298 21.432 135.047 21.848C134.796 22.264 134.439 22.592 133.975 22.832C133.516 23.072 132.975 23.192 132.351 23.192ZM138.617 13.544C138.361 13.544 138.158 13.472 138.009 13.328C137.86 13.1787 137.785 12.984 137.785 12.744C137.785 12.5093 137.86 12.3227 138.009 12.184C138.158 12.0453 138.361 11.976 138.617 11.976C138.873 11.976 139.076 12.0453 139.225 12.184C139.374 12.3227 139.449 12.5093 139.449 12.744C139.449 12.984 139.374 13.1787 139.225 13.328C139.076 13.472 138.873 13.544 138.617 13.544ZM137.993 23V15.336H139.241V23H137.993ZM147.415 23L147.255 21.32V18.04C147.255 17.352 147.108 16.8587 146.815 16.56C146.521 16.256 146.081 16.104 145.495 16.104C145.164 16.104 144.863 16.152 144.591 16.248C144.324 16.344 144.111 16.4933 143.951 16.696C143.796 16.8933 143.719 17.1493 143.719 17.464H142.327C142.327 16.9093 142.463 16.464 142.735 16.128C143.007 15.7867 143.38 15.5413 143.855 15.392C144.335 15.2373 144.881 15.16 145.495 15.16C146.081 15.16 146.601 15.2587 147.055 15.456C147.508 15.6533 147.863 15.968 148.119 16.4C148.375 16.8267 148.503 17.384 148.503 18.072V23H147.415ZM144.807 23.192C144.177 23.192 143.657 23.08 143.247 22.856C142.836 22.632 142.529 22.3413 142.327 21.984C142.124 21.6267 142.023 21.2507 142.023 20.856C142.023 20.3387 142.151 19.9173 142.407 19.592C142.668 19.2667 143.023 19.0293 143.471 18.88C143.919 18.7253 144.423 18.648 144.983 18.648C145.383 18.648 145.783 18.688 146.183 18.768C146.588 18.848 146.983 18.9573 147.367 19.096V19.88C147.047 19.752 146.684 19.6507 146.279 19.576C145.879 19.5013 145.511 19.464 145.174 19.464C144.663 19.464 144.231 19.5707 143.879 19.784C143.527 19.992 143.351 20.3493 143.351 20.856C143.351 21.2293 143.484 21.5493 143.751 21.816C144.023 22.0827 144.455 22.216 145.047 22.216C145.463 22.216 145.836 22.12 146.167 21.928C146.503 21.7307 146.767 21.4853 146.959 21.192C147.156 20.8987 147.255 20.6053 147.255 20.312H147.559C147.559 20.824 147.447 21.2987 147.223 21.736C147.004 22.1733 146.689 22.5253 146.279 22.792C145.868 23.0587 145.377 23.192 144.807 23.192ZM151.491 23V12.088H152.739V23H151.491ZM31.07 32.544C30.814 32.544 30.6113 32.472 30.462 32.328C30.3127 32.1787 30.238 31.984 30.238 31.744C30.238 31.5093 30.3127 31.3227 30.462 31.184C30.6113 31.0453 30.814 30.976 31.07 30.976C31.326 30.976 31.5287 31.0453 31.678 31.184C31.8273 31.3227 31.902 31.5093 31.902 31.744C31.902 31.984 31.8273 32.1787 31.678 32.328C31.5287 32.472 31.326 32.544 31.07 32.544ZM30.446 42V34.336H31.694V42H30.446ZM40.5716 42V37.504C40.5716 36.7733 40.3956 36.2187 40.0436 35.84C39.697 35.456 39.2223 35.264 38.6196 35.264C38.161 35.264 37.7636 35.3893 37.4276 35.64C37.0916 35.8907 36.833 36.2507 36.6516 36.72C36.4703 37.184 36.3796 37.7387 36.3796 38.384H35.8996C35.8996 37.4933 36.017 36.7333 36.2516 36.104C36.4863 35.4747 36.8276 34.9947 37.2756 34.664C37.729 34.328 38.2783 34.16 38.9236 34.16C39.5263 34.16 40.041 34.296 40.4676 34.568C40.8996 34.8347 41.2303 35.2187 41.4596 35.72C41.689 36.2213 41.8036 36.816 41.8036 37.504V42H40.5716ZM35.1316 42V34.352H36.2036L36.3796 36.112V42H35.1316ZM47.1399 42.192C46.7239 42.192 46.3505 42.112 46.0199 41.952C45.6892 41.792 45.4279 41.552 45.2359 41.232C45.0439 40.912 44.9479 40.512 44.9479 40.032V32.224H46.1799V40C46.1799 40.7893 46.5479 41.184 47.2839 41.184C47.5025 41.184 47.7132 41.16 47.9159 41.112C48.1239 41.064 48.3559 40.992 48.6119 40.896L48.7879 41.792C48.5159 41.9093 48.2439 42.0053 47.9719 42.08C47.7052 42.1547 47.4279 42.192 47.1399 42.192ZM43.7159 35.216V34.352H48.5959V35.216H43.7159ZM53.4595 42.192C52.7982 42.192 52.2062 42.024 51.6835 41.688C51.1662 41.3467 50.7555 40.8747 50.4515 40.272C50.1528 39.6693 50.0035 38.976 50.0035 38.192C50.0035 37.3547 50.1528 36.6347 50.4515 36.032C50.7502 35.4293 51.1582 34.968 51.6755 34.648C52.1982 34.3227 52.7928 34.16 53.4595 34.16C54.0408 34.16 54.5368 34.2773 54.9475 34.512C55.3582 34.7467 55.6888 35.064 55.9395 35.464C56.1902 35.864 56.3635 36.3173 56.4595 36.824C56.5608 37.3253 56.5902 37.8453 56.5475 38.384H51.0115V37.616H55.7235L55.3555 37.856C55.3715 37.5413 55.3528 37.2267 55.2995 36.912C55.2515 36.5973 55.1582 36.3093 55.0195 36.048C54.8808 35.7813 54.6862 35.568 54.4355 35.408C54.1848 35.248 53.8648 35.168 53.4755 35.168C52.9848 35.168 52.5742 35.2933 52.2435 35.544C51.9128 35.7947 51.6648 36.1253 51.4995 36.536C51.3342 36.9413 51.2515 37.3813 51.2515 37.856V38.368C51.2515 38.9013 51.3315 39.3787 51.4915 39.8C51.6568 40.2213 51.9022 40.5547 52.2275 40.8C52.5528 41.0453 52.9635 41.168 53.4595 41.168C53.9555 41.168 54.3635 41.048 54.6835 40.808C55.0035 40.568 55.1982 40.2133 55.2675 39.744H56.5635C56.4835 40.2507 56.3022 40.688 56.0195 41.056C55.7368 41.4187 55.3768 41.6987 54.9395 41.896C54.5022 42.0933 54.0088 42.192 53.4595 42.192ZM59.0223 42V34.336H60.2703V42H59.0223ZM59.8863 38.544C59.8863 37.5733 59.9796 36.768 60.1663 36.128C60.3529 35.4827 60.6249 35.0027 60.9823 34.688C61.3449 34.368 61.7849 34.208 62.3023 34.208C62.4729 34.208 62.6276 34.2213 62.7663 34.248C62.9103 34.2693 63.0543 34.304 63.1983 34.352L63.1183 35.584C62.9689 35.536 62.8063 35.496 62.6303 35.464C62.4543 35.4267 62.2969 35.408 62.1583 35.408C61.7049 35.408 61.3396 35.5387 61.0623 35.8C60.7849 36.056 60.5823 36.4187 60.4543 36.888C60.3316 37.3573 60.2703 37.9093 60.2703 38.544H59.8863ZM67.4595 42.192C66.7982 42.192 66.2062 42.024 65.6835 41.688C65.1662 41.3467 64.7555 40.8747 64.4515 40.272C64.1528 39.6693 64.0035 38.976 64.0035 38.192C64.0035 37.3547 64.1528 36.6347 64.4515 36.032C64.7502 35.4293 65.1582 34.968 65.6755 34.648C66.1982 34.3227 66.7928 34.16 67.4595 34.16C68.0408 34.16 68.5368 34.2773 68.9475 34.512C69.3582 34.7467 69.6888 35.064 69.9395 35.464C70.1902 35.864 70.3635 36.3173 70.4595 36.824C70.5608 37.3253 70.5902 37.8453 70.5475 38.384H65.0115V37.616H69.7235L69.3555 37.856C69.3715 37.5413 69.3528 37.2267 69.2995 36.912C69.2515 36.5973 69.1582 36.3093 69.0195 36.048C68.8808 35.7813 68.6862 35.568 68.4355 35.408C68.1848 35.248 67.8648 35.168 67.4755 35.168C66.9848 35.168 66.5742 35.2933 66.2435 35.544C65.9128 35.7947 65.6648 36.1253 65.4995 36.536C65.3342 36.9413 65.2515 37.3813 65.2515 37.856V38.368C65.2515 38.9013 65.3315 39.3787 65.4915 39.8C65.6568 40.2213 65.9022 40.5547 66.2275 40.8C66.5528 41.0453 66.9635 41.168 67.4595 41.168C67.9555 41.168 68.3635 41.048 68.6835 40.808C69.0035 40.568 69.1982 40.2133 69.2675 39.744H70.5635C70.4835 40.2507 70.3022 40.688 70.0195 41.056C69.7368 41.4187 69.3768 41.6987 68.9395 41.896C68.5022 42.0933 68.0088 42.192 67.4595 42.192ZM75.7743 42.192C75.0329 42.192 74.4143 42.088 73.9183 41.88C73.4223 41.6667 73.0463 41.376 72.7903 41.008C72.5343 40.6347 72.3983 40.208 72.3823 39.728H73.5823C73.6089 40.2133 73.8036 40.5787 74.1663 40.824C74.5343 41.064 75.0329 41.184 75.6623 41.184C75.9929 41.184 76.2969 41.1307 76.5743 41.024C76.8516 40.9173 77.0729 40.7707 77.2383 40.584C77.4036 40.3973 77.4863 40.1867 77.4863 39.952C77.4863 39.6533 77.3769 39.4187 77.1583 39.248C76.9396 39.0773 76.5903 38.928 76.1102 38.8L74.6223 38.32C73.9769 38.1173 73.4809 37.84 73.1343 37.488C72.7929 37.1307 72.6223 36.704 72.6223 36.208C72.6223 35.5893 72.8943 35.0933 73.4383 34.72C73.9823 34.3467 74.6969 34.16 75.5823 34.16C76.5209 34.16 77.2489 34.352 77.7663 34.736C78.2836 35.12 78.5529 35.6 78.5743 36.176H77.3423C77.2943 35.84 77.1236 35.5867 76.8303 35.416C76.5369 35.24 76.1209 35.152 75.5823 35.152C75.0649 35.152 74.6596 35.2693 74.3663 35.504C74.0783 35.7333 73.9343 35.9893 73.9343 36.272C73.9343 36.8 74.3876 37.1893 75.2943 37.44L76.8143 37.952C77.4703 38.1493 77.9716 38.408 78.3183 38.728C78.6703 39.048 78.8463 39.456 78.8463 39.952C78.8463 40.336 78.7209 40.6987 78.4703 41.04C78.2196 41.3813 77.8649 41.6587 77.4063 41.872C76.9476 42.0853 76.4036 42.192 75.7743 42.192ZM83.7805 42.192C83.3645 42.192 82.9912 42.112 82.6605 41.952C82.3298 41.792 82.0685 41.552 81.8765 41.232C81.6845 40.912 81.5885 40.512 81.5885 40.032V32.224H82.8205V40C82.8205 40.7893 83.1885 41.184 83.9245 41.184C84.1432 41.184 84.3538 41.16 84.5565 41.112C84.7645 41.064 84.9965 40.992 85.2525 40.896L85.4285 41.792C85.1565 41.9093 84.8845 42.0053 84.6125 42.08C84.3458 42.1547 84.0685 42.192 83.7805 42.192ZM80.3565 35.216V34.352H85.2365V35.216H80.3565ZM91.945 32.544C91.689 32.544 91.4863 32.472 91.337 32.328C91.1877 32.1787 91.113 31.984 91.113 31.744C91.113 31.5093 91.1877 31.3227 91.337 31.184C91.4863 31.0453 91.689 30.976 91.945 30.976C92.201 30.976 92.4037 31.0453 92.553 31.184C92.7023 31.3227 92.777 31.5093 92.777 31.744C92.777 31.984 92.7023 32.1787 92.553 32.328C92.4037 32.472 92.201 32.544 91.945 32.544ZM91.321 42V34.336H92.569V42H91.321ZM101.447 42V37.504C101.447 36.7733 101.271 36.2187 100.919 35.84C100.572 35.456 100.097 35.264 99.4946 35.264C99.036 35.264 98.6386 35.3893 98.3026 35.64C97.9666 35.8907 97.708 36.2507 97.5266 36.72C97.3453 37.184 97.2546 37.7387 97.2546 38.384H96.7746C96.7746 37.4933 96.892 36.7333 97.1266 36.104C97.3613 35.4747 97.7026 34.9947 98.1506 34.664C98.604 34.328 99.1533 34.16 99.7986 34.16C100.401 34.16 100.916 34.296 101.343 34.568C101.775 34.8347 102.105 35.2187 102.335 35.72C102.564 36.2213 102.679 36.816 102.679 37.504V42H101.447ZM96.0066 42V34.352H97.0786L97.2546 36.112V42H96.0066ZM109.46 42V31.088H110.708V42H109.46ZM116.6 42.192C115.939 42.192 115.347 42.024 114.824 41.688C114.307 41.3467 113.896 40.8747 113.592 40.272C113.293 39.6693 113.144 38.976 113.144 38.192C113.144 37.3547 113.293 36.6347 113.592 36.032C113.891 35.4293 114.299 34.968 114.816 34.648C115.339 34.3227 115.933 34.16 116.6 34.16C117.181 34.16 117.677 34.2773 118.088 34.512C118.499 34.7467 118.829 35.064 119.08 35.464C119.331 35.864 119.504 36.3173 119.6 36.824C119.701 37.3253 119.731 37.8453 119.688 38.384H114.152V37.616H118.864L118.496 37.856C118.512 37.5413 118.493 37.2267 118.44 36.912C118.392 36.5973 118.299 36.3093 118.16 36.048C118.021 35.7813 117.827 35.568 117.576 35.408C117.325 35.248 117.005 35.168 116.616 35.168C116.125 35.168 115.715 35.2933 115.384 35.544C115.053 35.7947 114.805 36.1253 114.64 36.536C114.475 36.9413 114.392 37.3813 114.392 37.856V38.368C114.392 38.9013 114.472 39.3787 114.632 39.8C114.797 40.2213 115.043 40.5547 115.368 40.8C115.693 41.0453 116.104 41.168 116.6 41.168C117.096 41.168 117.504 41.048 117.824 40.808C118.144 40.568 118.339 40.2133 118.408 39.744H119.704C119.624 40.2507 119.443 40.688 119.16 41.056C118.877 41.4187 118.517 41.6987 118.08 41.896C117.643 42.0933 117.149 42.192 116.6 42.192ZM126.899 42L126.739 40.32V37.04C126.739 36.352 126.592 35.8587 126.299 35.56C126.006 35.256 125.566 35.104 124.979 35.104C124.648 35.104 124.347 35.152 124.075 35.248C123.808 35.344 123.595 35.4933 123.435 35.696C123.28 35.8933 123.203 36.1493 123.203 36.464H121.811C121.811 35.9093 121.947 35.464 122.219 35.128C122.491 34.7867 122.864 34.5413 123.339 34.392C123.819 34.2373 124.366 34.16 124.979 34.16C125.566 34.16 126.086 34.2587 126.539 34.456C126.992 34.6533 127.347 34.968 127.603 35.4C127.859 35.8267 127.987 36.384 127.987 37.072V42H126.899ZM124.291 42.192C123.662 42.192 123.142 42.08 122.731 41.856C122.32 41.632 122.014 41.3413 121.811 40.984C121.608 40.6267 121.507 40.2507 121.507 39.856C121.507 39.3387 121.635 38.9173 121.891 38.592C122.152 38.2667 122.507 38.0293 122.955 37.88C123.403 37.7253 123.907 37.648 124.467 37.648C124.867 37.648 125.267 37.688 125.667 37.768C126.072 37.848 126.467 37.9573 126.851 38.096V38.88C126.531 38.752 126.168 38.6507 125.763 38.576C125.363 38.5013 124.995 38.464 124.659 38.464C124.147 38.464 123.715 38.5707 123.363 38.784C123.011 38.992 122.835 39.3493 122.835 39.856C122.835 40.2293 122.968 40.5493 123.235 40.816C123.507 41.0827 123.939 41.216 124.531 41.216C124.947 41.216 125.32 41.12 125.651 40.928C125.987 40.7307 126.251 40.4853 126.443 40.192C126.64 39.8987 126.739 39.6053 126.739 39.312H127.043C127.043 39.824 126.931 40.2987 126.707 40.736C126.488 41.1733 126.174 41.5253 125.763 41.792C125.352 42.0587 124.862 42.192 124.291 42.192ZM130.975 42V34.336H132.223V42H130.975ZM131.839 38.544C131.839 37.5733 131.933 36.768 132.119 36.128C132.306 35.4827 132.578 35.0027 132.935 34.688C133.298 34.368 133.738 34.208 134.255 34.208C134.426 34.208 134.581 34.2213 134.719 34.248C134.863 34.2693 135.007 34.304 135.151 34.352L135.071 35.584C134.922 35.536 134.759 35.496 134.583 35.464C134.407 35.4267 134.25 35.408 134.111 35.408C133.658 35.408 133.293 35.5387 133.015 35.8C132.738 36.056 132.535 36.4187 132.407 36.888C132.285 37.3573 132.223 37.9093 132.223 38.544H131.839ZM142.197 42V37.504C142.197 36.7733 142.021 36.2187 141.669 35.84C141.322 35.456 140.847 35.264 140.245 35.264C139.786 35.264 139.389 35.3893 139.053 35.64C138.717 35.8907 138.458 36.2507 138.277 36.72C138.095 37.184 138.005 37.7387 138.005 38.384H137.525C137.525 37.4933 137.642 36.7333 137.877 36.104C138.111 35.4747 138.453 34.9947 138.901 34.664C139.354 34.328 139.903 34.16 140.549 34.16C141.151 34.16 141.666 34.296 142.093 34.568C142.525 34.8347 142.855 35.2187 143.085 35.72C143.314 36.2213 143.429 36.816 143.429 37.504V42H142.197ZM136.757 42V34.352H137.829L138.005 36.112V42H136.757ZM147.117 32.544C146.861 32.544 146.658 32.472 146.509 32.328C146.36 32.1787 146.285 31.984 146.285 31.744C146.285 31.5093 146.36 31.3227 146.509 31.184C146.658 31.0453 146.861 30.976 147.117 30.976C147.373 30.976 147.576 31.0453 147.725 31.184C147.874 31.3227 147.949 31.5093 147.949 31.744C147.949 31.984 147.874 32.1787 147.725 32.328C147.576 32.472 147.373 32.544 147.117 32.544ZM146.493 42V34.336H147.741V42H146.493ZM156.619 42V37.504C156.619 36.7733 156.443 36.2187 156.091 35.84C155.744 35.456 155.269 35.264 154.667 35.264C154.208 35.264 153.811 35.3893 153.475 35.64C153.139 35.8907 152.88 36.2507 152.699 36.72C152.517 37.184 152.427 37.7387 152.427 38.384H151.947C151.947 37.4933 152.064 36.7333 152.299 36.104C152.533 35.4747 152.875 34.9947 153.323 34.664C153.776 34.328 154.325 34.16 154.971 34.16C155.573 34.16 156.088 34.296 156.515 34.568C156.947 34.8347 157.277 35.2187 157.507 35.72C157.736 36.2213 157.851 36.816 157.851 37.504V42H156.619ZM151.179 42V34.352H152.251L152.427 36.112V42H151.179ZM163.539 45.936C162.755 45.936 162.075 45.824 161.499 45.6C160.923 45.3813 160.475 45.0853 160.155 44.712C159.84 44.344 159.683 43.936 159.683 43.488C159.683 42.896 159.899 42.4427 160.331 42.128C160.768 41.8187 161.331 41.664 162.019 41.664L162.707 42.096C162.131 42.096 161.685 42.216 161.371 42.456C161.056 42.696 160.899 43.024 160.899 43.44C160.899 43.856 161.123 44.208 161.571 44.496C162.019 44.784 162.675 44.928 163.539 44.928C164.179 44.928 164.739 44.8347 165.219 44.648C165.704 44.4667 166.08 44.2267 166.347 43.928C166.619 43.6347 166.755 43.3173 166.755 42.976C166.755 42.736 166.667 42.528 166.491 42.352C166.315 42.1813 166.045 42.096 165.683 42.096H162.707C162.189 42.096 161.741 42.0187 161.363 41.864C160.989 41.704 160.701 41.496 160.499 41.24C160.296 40.984 160.195 40.704 160.195 40.4C160.195 40.08 160.285 39.808 160.467 39.584C160.648 39.36 160.883 39.1893 161.171 39.072C161.464 38.9547 161.779 38.896 162.115 38.896L162.355 39.36C162.195 39.36 162.032 39.3973 161.867 39.472C161.707 39.5413 161.571 39.648 161.459 39.792C161.352 39.9307 161.299 40.1067 161.299 40.32C161.299 40.5653 161.4 40.7707 161.603 40.936C161.805 41.1013 162.173 41.184 162.707 41.184H165.683C166.403 41.184 166.968 41.336 167.379 41.64C167.795 41.944 168.003 42.368 168.003 42.912C168.003 43.4133 167.824 43.8933 167.467 44.352C167.109 44.816 166.597 45.1947 165.931 45.488C165.264 45.7867 164.467 45.936 163.539 45.936ZM163.763 39.76C163.176 39.76 162.645 39.6427 162.171 39.408C161.701 39.1733 161.328 38.8453 161.051 38.424C160.779 38.0027 160.643 37.5147 160.643 36.96C160.643 36.4 160.779 35.9093 161.051 35.488C161.328 35.0667 161.701 34.7413 162.171 34.512C162.645 34.2773 163.176 34.16 163.763 34.16C164.333 34.16 164.851 34.2773 165.315 34.512C165.784 34.7413 166.157 35.0667 166.435 35.488C166.712 35.9093 166.851 36.4 166.851 36.96C166.851 37.5147 166.712 38.0027 166.435 38.424C166.157 38.8453 165.784 39.1733 165.315 39.408C164.851 39.6427 164.333 39.76 163.763 39.76ZM163.763 38.864C164.349 38.864 164.805 38.6827 165.131 38.32C165.456 37.9573 165.619 37.504 165.619 36.96C165.619 36.4 165.456 35.9467 165.131 35.6C164.805 35.248 164.349 35.072 163.763 35.072C163.181 35.072 162.723 35.248 162.387 35.6C162.056 35.9467 161.891 36.4 161.891 36.96C161.891 37.504 162.056 37.9573 162.387 38.32C162.723 38.6827 163.181 38.864 163.763 38.864ZM166.275 35.376L165.683 35.136C165.683 34.688 165.771 34.296 165.947 33.96C166.123 33.6187 166.373 33.3547 166.699 33.168C167.024 32.976 167.411 32.88 167.859 32.88L167.763 34.112C167.283 34.112 166.915 34.216 166.659 34.424C166.403 34.6267 166.275 34.944 166.275 35.376Z" fill="#3DCFB6"/>
<path d="M72.993 72.4445C74.5676 72.4445 75.844 71.1675 75.844 69.5923C75.844 68.0171 74.5676 66.7401 72.993 66.7401C71.4185 66.7401 70.1421 68.0171 70.1421 69.5923C70.1421 71.1675 71.4185 72.4445 72.993 72.4445Z" fill="#61DAFB"/>
<path d="M88.9861 69.5922C88.9861 67.3522 86.3577 65.4044 82.269 64.2357C83.2981 60.1035 82.9365 56.8479 80.9896 55.7348C79.0426 54.6079 76.0526 55.9296 72.993 58.8792C69.9335 55.9157 66.9435 54.6079 64.9965 55.7348C63.3833 56.667 62.7853 59.0322 63.3277 62.3992C63.425 62.9974 63.5641 63.6096 63.7171 64.2496C59.6284 65.4183 57 67.3661 57 69.6061C57 71.8461 59.6284 73.78 63.7171 74.9627C63.5641 75.5887 63.425 76.2148 63.3277 76.8131C62.7853 80.18 63.3833 82.5453 64.9965 83.4774C65.4694 83.7557 66.0117 83.8948 66.6097 83.8948C68.0282 83.8948 69.7388 83.1157 71.6023 81.5992C72.0613 81.2235 72.5341 80.7922 72.993 80.347C73.452 80.7922 73.9248 81.2235 74.3837 81.5992C76.2473 83.1157 77.9578 83.8948 79.3764 83.8948C79.9744 83.8948 80.5167 83.7557 80.9896 83.4774C82.6028 82.5453 83.2008 80.18 82.6723 76.8131C82.575 76.2148 82.4359 75.6027 82.2829 74.9627C86.3716 73.794 89 71.8461 89 69.6061L88.9861 69.5922ZM80.2942 56.9313C81.5458 57.6548 81.824 60.2983 80.92 63.8879C79.6128 63.5818 78.1804 63.3592 76.6645 63.22C75.7884 61.9818 74.8705 60.8548 73.9665 59.867C76.0804 57.8218 78.0413 56.7087 79.3903 56.7087C79.7379 56.7087 80.0439 56.7783 80.3081 56.9313H80.2942ZM77.4572 72.1661C76.9565 73.0148 76.442 73.8496 75.9135 74.6287C74.9817 74.6983 74.0083 74.74 73.007 74.74C72.0056 74.74 71.0322 74.6983 70.1004 74.6287C69.5719 73.8496 69.0435 73.0148 68.5567 72.1661C68.0561 71.3035 67.611 70.4548 67.1938 69.5922C67.611 68.7296 68.0561 67.8809 68.5567 67.0183C69.0574 66.1418 69.5858 65.3209 70.1004 64.5557C71.0322 64.4861 72.0056 64.4444 73.007 64.4444C74.0083 64.4444 74.9817 64.4861 75.9135 64.5557C76.442 65.3209 76.9565 66.1418 77.4572 67.0183C77.9439 67.867 78.4029 68.7296 78.8201 69.5922C78.4168 70.4409 77.9718 71.2896 77.4572 72.1661ZM79.5432 71.22C79.9326 72.1522 80.2664 73.0566 80.5445 73.947C79.6545 74.1418 78.6949 74.3227 77.6797 74.4479C78.0135 73.9331 78.3333 73.4044 78.6532 72.8618C78.9731 72.3192 79.2651 71.7627 79.5432 71.22ZM72.993 78.3157C72.3672 77.634 71.7414 76.8827 71.1295 76.0757C71.7414 76.1035 72.3533 76.1174 72.993 76.1174C73.6328 76.1174 74.2447 76.1035 74.8566 76.0757C74.2447 76.8827 73.6189 77.62 72.993 78.3157ZM68.3064 74.4479C67.2912 74.3227 66.3316 74.1557 65.4415 73.947C65.7197 73.0566 66.0535 72.1522 66.4429 71.22C66.721 71.7627 67.013 72.3192 67.3329 72.8618C67.6528 73.4044 67.9726 73.9331 68.3064 74.4479ZM66.4429 67.9505C66.0535 67.0183 65.7197 66.114 65.4415 65.2235C66.3316 65.0287 67.2912 64.8479 68.3064 64.7227C67.9726 65.2374 67.6528 65.7661 67.3329 66.3087C67.013 66.8513 66.721 67.394 66.4429 67.9505ZM72.993 60.8548C73.605 61.5227 74.2308 62.274 74.8566 63.0948C74.2447 63.067 73.6328 63.0531 72.993 63.0531C72.3533 63.0531 71.7414 63.067 71.1295 63.0948C71.7553 62.274 72.3672 61.5227 72.993 60.8548ZM78.6532 66.3227C78.3333 65.78 78.0135 65.2513 77.6797 64.7366C78.6949 64.8618 79.6545 65.0287 80.5445 65.2374C80.2803 66.114 79.9465 67.0183 79.5432 67.9644C79.2651 67.4218 78.9591 66.8653 78.6532 66.3227ZM64.6906 62.1766C64.2595 59.4635 64.621 57.5574 65.6919 56.9453C65.9561 56.7922 66.2621 56.7227 66.6097 56.7227C67.9587 56.7227 69.9196 57.8357 72.0335 59.8809C71.1156 60.8687 70.2116 61.9957 69.3355 63.234C67.8196 63.3731 66.3872 63.5957 65.08 63.9018C64.927 63.3174 64.8018 62.7331 64.7184 62.1905L64.6906 62.1766ZM58.3907 69.5922C58.3907 68.1453 60.5324 66.587 64.0926 65.5713C64.4959 66.8653 65.0243 68.2148 65.6502 69.5922C65.0243 70.9557 64.4959 72.3053 64.0926 73.6131C60.5463 72.5974 58.3907 71.0531 58.3907 69.5922ZM70.7262 80.4861C68.5984 82.2113 66.7627 82.8514 65.6919 82.2392C64.621 81.627 64.2595 79.707 64.6906 77.0079C64.774 76.4513 64.9131 75.8809 65.0522 75.2966C66.3594 75.6027 67.7918 75.8253 69.3077 75.9644C70.1838 77.1887 71.0878 78.3296 72.0056 79.3314C71.5745 79.7487 71.1434 80.1522 70.7123 80.5L70.7262 80.4861ZM81.2955 77.0079C81.7266 79.7209 81.3651 81.627 80.2942 82.2392C79.2234 82.8514 77.3877 82.2113 75.2599 80.4861C74.8288 80.1383 74.3977 79.7348 73.9665 79.3174C74.8983 78.3157 75.8023 77.1887 76.6645 75.9644C78.1804 75.8253 79.6128 75.6027 80.92 75.2966C81.073 75.8809 81.1982 76.4653 81.2816 77.0079H81.2955ZM81.8935 73.5992C81.4902 72.3053 80.9618 70.9557 80.3359 69.5783C80.9757 68.187 81.4902 66.8374 81.8935 65.5574C85.4537 66.5731 87.5954 68.1174 87.5954 69.5783C87.5954 71.0392 85.4537 72.5835 81.8935 73.5992Z" fill="#61DAFB"/>
<path d="M58.0203 101V93.212H60.9003C61.8323 93.212 62.5463 93.43 63.0423 93.866C63.5423 94.302 63.7923 94.88 63.7923 95.6C63.7923 96.308 63.5423 96.88 63.0423 97.316C62.5463 97.748 61.8323 97.964 60.9003 97.964H59.4363V101H58.0203ZM62.2323 101L60.1683 97.352H61.6803L64.0803 101H62.2323ZM59.4363 97.016H60.7563C61.2763 97.016 61.6703 96.898 61.9383 96.662C62.2063 96.422 62.3403 96.112 62.3403 95.732C62.3403 95.344 62.2183 95.032 61.9743 94.796C61.7303 94.556 61.3723 94.436 60.9003 94.436H59.4363V97.016ZM67.915 101.168C67.419 101.168 66.965 101.04 66.553 100.784C66.141 100.528 65.811 100.17 65.563 99.71C65.315 99.246 65.191 98.704 65.191 98.084C65.191 97.444 65.313 96.894 65.557 96.434C65.805 95.974 66.135 95.622 66.547 95.378C66.959 95.134 67.415 95.012 67.915 95.012C68.379 95.012 68.779 95.106 69.115 95.294C69.455 95.478 69.727 95.73 69.931 96.05C70.139 96.366 70.279 96.724 70.351 97.124C70.423 97.524 70.427 97.936 70.363 98.36H66.319V97.592H69.361L69.085 97.772C69.097 97.584 69.087 97.394 69.055 97.202C69.027 97.01 68.971 96.834 68.887 96.674C68.803 96.514 68.683 96.386 68.527 96.29C68.375 96.19 68.179 96.14 67.939 96.14C67.651 96.14 67.407 96.212 67.207 96.356C67.007 96.5 66.855 96.696 66.751 96.944C66.647 97.192 66.595 97.472 66.595 97.784V98.348C66.595 98.676 66.643 98.966 66.739 99.218C66.839 99.47 66.985 99.668 67.177 99.812C67.373 99.956 67.619 100.028 67.915 100.028C68.191 100.028 68.423 99.964 68.611 99.836C68.799 99.708 68.919 99.516 68.971 99.26H70.399C70.339 99.636 70.197 99.968 69.973 100.256C69.753 100.54 69.467 100.764 69.115 100.928C68.763 101.088 68.363 101.168 67.915 101.168ZM75.8142 101L75.6342 99.584V97.244C75.6342 96.836 75.5502 96.534 75.3822 96.338C75.2182 96.142 74.9382 96.044 74.5422 96.044C74.3142 96.044 74.1162 96.078 73.9482 96.146C73.7802 96.214 73.6502 96.312 73.5582 96.44C73.4702 96.564 73.4262 96.716 73.4262 96.896H71.8782C71.8782 96.456 71.9842 96.098 72.1962 95.822C72.4082 95.542 72.7122 95.338 73.1082 95.21C73.5082 95.078 73.9862 95.012 74.5422 95.012C75.0462 95.012 75.4862 95.094 75.8622 95.258C76.2382 95.418 76.5302 95.666 76.7382 96.002C76.9462 96.338 77.0502 96.768 77.0502 97.292V101H75.8142ZM73.9062 101.168C73.4062 101.168 72.9882 101.082 72.6522 100.91C72.3202 100.734 72.0702 100.504 71.9022 100.22C71.7342 99.936 71.6502 99.628 71.6502 99.296C71.6502 98.928 71.7462 98.62 71.9382 98.372C72.1342 98.12 72.4102 97.932 72.7662 97.808C73.1222 97.68 73.5422 97.616 74.0262 97.616C74.3422 97.616 74.6402 97.64 74.9202 97.688C75.2042 97.736 75.4862 97.8 75.7662 97.88V98.708C75.5462 98.636 75.3062 98.58 75.0462 98.54C74.7862 98.5 74.5422 98.48 74.3142 98.48C73.9782 98.48 73.7022 98.542 73.4862 98.666C73.2702 98.79 73.1622 99 73.1622 99.296C73.1622 99.512 73.2502 99.698 73.4262 99.854C73.6022 100.01 73.8822 100.088 74.2662 100.088C74.5582 100.088 74.8062 100.024 75.0102 99.896C75.2142 99.768 75.3682 99.608 75.4722 99.416C75.5802 99.224 75.6342 99.032 75.6342 98.84H75.9702C75.9702 99.26 75.8922 99.648 75.7362 100.004C75.5802 100.356 75.3482 100.638 75.0402 100.85C74.7362 101.062 74.3582 101.168 73.9062 101.168ZM81.3338 101.168C80.8458 101.168 80.3918 101.042 79.9718 100.79C79.5558 100.534 79.2178 100.176 78.9578 99.716C78.7018 99.252 78.5738 98.708 78.5738 98.084C78.5738 97.424 78.7018 96.866 78.9578 96.41C79.2178 95.95 79.5558 95.602 79.9718 95.366C80.3918 95.13 80.8458 95.012 81.3338 95.012C81.7138 95.012 82.0478 95.074 82.3358 95.198C82.6278 95.318 82.8758 95.482 83.0798 95.69C83.2838 95.894 83.4438 96.122 83.5598 96.374C83.6758 96.626 83.7498 96.88 83.7818 97.136L82.3538 97.172C82.2898 96.916 82.1698 96.704 81.9938 96.536C81.8218 96.368 81.5978 96.284 81.3218 96.284C81.0938 96.284 80.8798 96.348 80.6798 96.476C80.4798 96.6 80.3158 96.794 80.1878 97.058C80.0638 97.322 80.0018 97.664 80.0018 98.084C80.0018 98.484 80.0598 98.818 80.1758 99.086C80.2958 99.35 80.4558 99.55 80.6558 99.686C80.8558 99.818 81.0778 99.884 81.3218 99.884C81.6818 99.884 81.9438 99.798 82.1078 99.626C82.2718 99.45 82.3538 99.216 82.3538 98.924H83.7818C83.7818 99.336 83.6878 99.712 83.4998 100.052C83.3118 100.392 83.0358 100.664 82.6718 100.868C82.3078 101.068 81.8618 101.168 81.3338 101.168ZM87.4453 101.168C87.1013 101.168 86.7853 101.104 86.4973 100.976C86.2133 100.848 85.9853 100.652 85.8133 100.388C85.6453 100.124 85.5613 99.788 85.5613 99.38V93.632H86.9773V99.332C86.9773 99.812 87.2053 100.052 87.6613 100.052C87.8013 100.052 87.9413 100.036 88.0813 100.004C88.2213 99.972 88.3813 99.924 88.5613 99.86L88.7653 100.856C88.5413 100.944 88.3233 101.018 88.1113 101.078C87.8993 101.138 87.6773 101.168 87.4453 101.168ZM84.7453 96.116V95.18H88.5613V96.116H84.7453Z" fill="#3DCFB6"/>
<path d="M126.695 56.6666L123.001 63.0666L119.305 56.6666H107L123.001 84.3804L139 56.6666H126.695Z" fill="#41B883"/>
<path d="M126.695 56.6666L123.001 63.0666L119.305 56.6666H113.4L123.001 73.2944L132.6 56.6666H126.695Z" fill="#34495E"/>
<path d="M109.519 99.452L111.511 93.212H112.999L110.323 101H108.835L106.195 93.212H107.695L109.663 99.452H109.519ZM118.201 95.156H119.617V101H118.201V95.156ZM114.205 95.156H115.621V98.732C115.621 99.112 115.715 99.398 115.903 99.59C116.091 99.778 116.349 99.872 116.677 99.872C116.957 99.872 117.211 99.8 117.439 99.656C117.671 99.508 117.855 99.292 117.991 99.008C118.131 98.72 118.201 98.364 118.201 97.94H118.585C118.585 98.652 118.493 99.242 118.309 99.71C118.125 100.178 117.871 100.528 117.547 100.76C117.223 100.992 116.849 101.108 116.425 101.108C116.009 101.108 115.633 101.034 115.297 100.886C114.961 100.738 114.695 100.5 114.499 100.172C114.303 99.844 114.205 99.412 114.205 98.876V95.156ZM124.02 101.168C123.524 101.168 123.07 101.04 122.658 100.784C122.246 100.528 121.916 100.17 121.668 99.71C121.42 99.246 121.296 98.704 121.296 98.084C121.296 97.444 121.418 96.894 121.662 96.434C121.91 95.974 122.24 95.622 122.652 95.378C123.064 95.134 123.52 95.012 124.02 95.012C124.484 95.012 124.884 95.106 125.22 95.294C125.56 95.478 125.832 95.73 126.036 96.05C126.244 96.366 126.384 96.724 126.456 97.124C126.528 97.524 126.532 97.936 126.468 98.36H122.424V97.592H125.466L125.19 97.772C125.202 97.584 125.192 97.394 125.16 97.202C125.132 97.01 125.076 96.834 124.992 96.674C124.908 96.514 124.788 96.386 124.632 96.29C124.48 96.19 124.284 96.14 124.044 96.14C123.756 96.14 123.512 96.212 123.312 96.356C123.112 96.5 122.96 96.696 122.856 96.944C122.752 97.192 122.7 97.472 122.7 97.784V98.348C122.7 98.676 122.748 98.966 122.844 99.218C122.944 99.47 123.09 99.668 123.282 99.812C123.478 99.956 123.724 100.028 124.02 100.028C124.296 100.028 124.528 99.964 124.716 99.836C124.904 99.708 125.024 99.516 125.076 99.26H126.504C126.444 99.636 126.302 99.968 126.078 100.256C125.858 100.54 125.572 100.764 125.22 100.928C124.868 101.088 124.468 101.168 124.02 101.168ZM127.384 100.172C127.384 99.9 127.476 99.672 127.66 99.488C127.844 99.304 128.08 99.212 128.368 99.212C128.656 99.212 128.896 99.304 129.088 99.488C129.28 99.672 129.376 99.9 129.376 100.172C129.376 100.44 129.28 100.664 129.088 100.844C128.896 101.02 128.656 101.108 128.368 101.108C128.08 101.108 127.844 101.018 127.66 100.838C127.476 100.658 127.384 100.436 127.384 100.172ZM131.69 94.112C131.422 94.112 131.208 94.04 131.048 93.896C130.892 93.748 130.814 93.544 130.814 93.284C130.814 93.032 130.892 92.832 131.048 92.684C131.208 92.532 131.422 92.456 131.69 92.456C131.962 92.456 132.176 92.532 132.332 92.684C132.488 92.832 132.566 93.032 132.566 93.284C132.566 93.544 132.488 93.748 132.332 93.896C132.176 94.04 131.962 94.112 131.69 94.112ZM130.442 104.012C130.13 104.012 129.842 103.978 129.578 103.91C129.31 103.842 129.038 103.752 128.762 103.64L128.786 102.416C128.99 102.516 129.206 102.6 129.434 102.668C129.658 102.74 129.878 102.776 130.094 102.776C130.386 102.776 130.608 102.692 130.76 102.524C130.916 102.356 130.994 102.072 130.994 101.672V95.156H132.41V101.696C132.41 102.528 132.236 103.122 131.888 103.478C131.544 103.834 131.062 104.012 130.442 104.012ZM136.981 101.168C136.421 101.168 135.939 101.092 135.535 100.94C135.135 100.784 134.827 100.562 134.611 100.274C134.395 99.982 134.285 99.632 134.281 99.224H135.589C135.601 99.512 135.715 99.722 135.931 99.854C136.147 99.986 136.441 100.052 136.813 100.052C137.017 100.052 137.197 100.022 137.353 99.962C137.513 99.902 137.637 99.82 137.725 99.716C137.813 99.612 137.857 99.496 137.857 99.368C137.857 99.204 137.797 99.076 137.677 98.984C137.561 98.888 137.373 98.8 137.113 98.72L135.841 98.264C135.385 98.1 135.035 97.884 134.791 97.616C134.547 97.348 134.425 97.028 134.425 96.656C134.425 96.164 134.647 95.768 135.091 95.468C135.539 95.164 136.137 95.012 136.885 95.012C137.629 95.012 138.203 95.176 138.607 95.504C139.015 95.828 139.225 96.24 139.237 96.74H137.905C137.885 96.548 137.793 96.396 137.629 96.284C137.465 96.172 137.217 96.116 136.885 96.116C136.585 96.116 136.349 96.178 136.177 96.302C136.009 96.422 135.925 96.564 135.925 96.728C135.925 97.004 136.161 97.212 136.633 97.352L138.013 97.868C138.461 98.02 138.809 98.216 139.057 98.456C139.305 98.696 139.429 99 139.429 99.368C139.429 99.676 139.325 99.968 139.117 100.244C138.913 100.516 138.627 100.738 138.259 100.91C137.891 101.082 137.465 101.168 136.981 101.168Z" fill="#3DCFB6"/>
<defs>
<filter id="filter0_d_3296_3797" x="0" y="0" width="196" height="134.415" filterUnits="userSpaceOnUse" color-interpolation-filters="sRGB">
<feFlood flood-opacity="0" result="BackgroundImageFix"/>
<feColorMatrix in="SourceAlpha" type="matrix" values="0 0 0 0 0 0 0 0 0 0 0 0 0 0 0 0 0 0 127 0" result="hardAlpha"/>
<feOffset dy="4"/>
<feGaussianBlur stdDeviation="2"/>
<feComposite in2="hardAlpha" operator="out"/>
<feColorMatrix type="matrix" values="0 0 0 0 0 0 0 0 0 0 0 0 0 0 0 0 0 0 0.25 0"/>
<feBlend mode="normal" in2="BackgroundImageFix" result="effect1_dropShadow_3296_3797"/>
<feBlend mode="normal" in="SourceGraphic" in2="effect1_dropShadow_3296_3797" result="shape"/>
</filter>
</defs>
</svg>
